<svg height="426pt" viewBox="0 -54 426 426" width="426pt" xmlns="http://www.w3.org/2000/svg"><path d="m426 33v177.5h-275.636719c12.867188-5.722656 21.179688-18.457031 21.238281-32.539062 0-19.714844-16.253906-35.753907-36.230468-35.753907-11.59375-.011719-22.5 5.496094-29.371094 14.832031v-157.039062h287c18.214844.0195312 32.980469 14.785156 33 33zm-370.554688 166.324219c-11.21875-1.921875-19.050781-12.175781-17.949218-23.503907 1.097656-11.328124 10.757812-19.882812 22.132812-19.613281 3.957032-.003906 7.84375 1.03125 11.277344 3 5.484375 3.136719 9.339844 8.496094 10.5625 14.695313l6.101562 31.445312zm51.988282 6.027343 6.097656-31.445312c2.328125-11.070312 12.578125-18.640625 23.84375-17.601562 11.261719 1.035156 19.960938 10.347656 20.226562 21.65625-.097656 10.53125-7.675781 19.503906-18.042968 21.363281zm-74.433594-205.351562h59v161.917969c-3.164062-6.203125-8.0625-11.359375-14.101562-14.832031-5.554688-3.199219-11.855469-4.878907-18.265626-4.878907-19.980468 0-36.230468 16.039063-36.230468 35.753907.058594 14.078124 8.367187 26.816406 21.234375 32.539062h-44.636719v-177.5c.0195312-18.214844 14.785156-32.9804688 33-33zm-33 284.5v-60h79.101562l-30.050781 30.050781c-2.734375 2.734375-2.734375 7.164063 0 9.898438s7.164063 2.734375 9.898438 0l33.050781-33.050781v86.101562h-59c-18.214844-.019531-32.9804688-14.785156-33-33zm393 33h-287v-86.101562l44.550781 44.550781c2.734375 2.734375 7.164063 2.734375 9.898438 0s2.734375-7.164063 0-9.898438l-41.550781-41.550781h307.101562v60c-.019531 18.214844-14.785156 32.980469-33 33zm0 0"/></svg>